<svg width="40" height="40" viewBox="0 0 40 40" fill="none" xmlns="http://www.w3.org/2000/svg">
<path d="M19.9999 3.33325C10.7999 3.33325 3.33325 10.7999 3.33325 19.9999C3.33325 29.1999 10.7999 36.6666 19.9999 36.6666C29.1999 36.6666 36.6666 29.1999 36.6666 19.9999C36.6666 10.7999 29.1999 3.33325 19.9999 3.33325ZM19.9999 9.99992C23.2166 9.99992 25.8333 12.6166 25.8333 15.8333C25.8333 19.0499 23.2166 21.6666 19.9999 21.6666C16.7833 21.6666 14.1666 19.0499 14.1666 15.8333C14.1666 12.6166 16.7833 9.99992 19.9999 9.99992ZM19.9999 33.3333C16.6166 33.3333 12.6166 31.9666 9.76659 28.5333C12.5833 26.3333 16.1333 24.9999 19.9999 24.9999C23.8666 24.9999 27.4166 26.3333 30.2333 28.5333C27.3833 31.9666 23.3833 33.3333 19.9999 33.3333Z" fill="#005B8D"/>
</svg>
