<svg width="110" height="30" viewBox="0 0 110 30" fill="none" xmlns="http://www.w3.org/2000/svg">
<g clip-path="url(#clip0_3822_25770)">
<path d="M54.6303 12.0227H57.8274C58.8665 12.0227 59.5858 12.2825 60.0254 12.7421C60.4251 13.1417 60.6249 13.6612 60.6249 14.3206V14.3406C60.6249 15.3797 60.0654 16.079 59.2262 16.4387L60.8447 18.7965H58.6867L57.3279 16.7384H56.4886V18.7965H54.6104L54.6303 12.0227ZM57.7475 15.2797C58.3669 15.2797 58.7466 14.96 58.7466 14.4805V14.4605C58.7466 13.921 58.347 13.6412 57.7275 13.6412H56.4886V15.2797C56.5086 15.2797 57.7475 15.2797 57.7475 15.2797Z" fill="#0A436A"/>
<path d="M61.0645 17.7975L62.1035 16.5587C62.7829 17.0982 63.5222 17.3779 64.3015 17.3779C64.821 17.3779 65.0808 17.1981 65.0808 16.9183V16.8984C65.0808 16.6186 64.861 16.4588 63.9219 16.239C62.4832 15.8993 61.3642 15.4996 61.3642 14.1209V14.1009C61.3642 12.8421 62.3633 11.9429 63.9818 11.9429C65.1408 11.9429 66.0399 12.2626 66.7593 12.8421L65.8201 14.1609C65.2007 13.7213 64.5213 13.5015 63.9219 13.5015C63.4623 13.5015 63.2425 13.6813 63.2425 13.9411V13.961C63.2425 14.2807 63.4823 14.4006 64.4214 14.6204C65.96 14.9601 66.9391 15.4597 66.9391 16.7385V16.7585C66.9391 18.1372 65.8401 18.9565 64.2016 18.9565C63.0427 18.9165 61.9037 18.5369 61.0645 17.7975Z" fill="#0A436A"/>
<path d="M67.8784 12.0227H69.7567V17.1381H73.0337V18.7766H67.8784V12.0227Z" fill="#0A436A"/>
<path d="M54.5903 1.25269H57.5077C59.2061 1.25269 60.3051 2.13189 60.3051 3.63052V3.65051C60.3051 5.24905 59.0862 6.08829 57.4078 6.08829H56.4686V8.02653H54.5903V1.25269ZM57.3678 4.62962C58.0272 4.62962 58.4468 4.26994 58.4468 3.75041V3.73043C58.4468 3.15096 58.0272 2.85123 57.3678 2.85123H56.4686V4.62962H57.3678Z" fill="#D92F27"/>
<path d="M60.9846 2.79133H62.8229V3.85036C63.1227 3.13102 63.6022 2.67143 64.4814 2.7114V4.64964H64.3216C63.3625 4.64964 62.8229 5.20913 62.8229 6.40804V8.04655H60.9846V2.79133Z" fill="#D92F27"/>
<path d="M64.821 5.42888C64.821 3.93024 66.0399 2.67139 67.7184 2.67139C69.3969 2.67139 70.5958 3.89028 70.5958 5.38892V5.4089C70.5958 6.88755 69.3769 8.14641 67.6984 8.14641C66.0399 8.14641 64.821 6.92752 64.821 5.42888ZM68.8174 5.42888C68.8174 4.76948 68.3378 4.22997 67.6984 4.22997C67.039 4.22997 66.5994 4.76948 66.5994 5.38892V5.4089C66.5994 6.04832 67.059 6.58783 67.7184 6.58783C68.3778 6.58783 68.8174 6.0683 68.8174 5.42888Z" fill="#D92F27"/>
<path d="M71.3352 6.20815V2.79126H73.1735V5.62868C73.1735 6.20815 73.4733 6.50788 73.9129 6.50788C74.3525 6.50788 74.6922 6.18817 74.6922 5.62868V2.79126H76.5105V8.0265H74.6922V7.30715C74.3525 7.74675 73.8729 8.14639 73.1336 8.14639C72.0146 8.14639 71.3352 7.38708 71.3352 6.20815Z" fill="#D92F27"/>
<path d="M77.3096 5.42885C77.3096 3.71041 78.3886 2.67136 79.6275 2.67136C80.4267 2.67136 80.8863 3.03103 81.226 3.43067V0.9729H83.0643V8.02649H81.226V7.32712C80.8663 7.76672 80.4267 8.14638 79.6474 8.14638C78.3886 8.14638 77.3096 7.10732 77.3096 5.42885ZM81.246 5.40887C81.246 4.7095 80.7664 4.20996 80.167 4.20996C79.5675 4.20996 79.088 4.7095 79.088 5.38889V5.40887C79.088 6.10823 79.5675 6.5878 80.167 6.5878C80.7864 6.60778 81.246 6.10823 81.246 5.40887Z" fill="#D92F27"/>
<path d="M84.0835 0.9729H85.9018V8.02649H84.0835V0.9729Z" fill="#D92F27"/>
<path d="M90.5176 2.79126H92.3959L90.4777 7.90661C90.0181 9.14548 89.5385 9.60506 88.4795 9.60506C87.8401 9.60506 87.2806 9.42523 86.801 9.14548L87.3605 7.86665C87.6602 8.04648 87.96 8.14639 88.1598 8.14639C88.3396 8.14639 88.4595 8.10643 88.5994 7.92659L86.5413 2.79126H88.4595L89.4986 5.94839L90.5176 2.79126Z" fill="#D92F27"/>
<path d="M60.1653 28.368C59.5858 28.8276 58.8664 29.0874 58.0272 29.0874C55.9691 29.0874 54.5903 27.4689 54.5903 25.6106V25.5906C54.5903 23.7323 55.9891 22.0938 58.0472 22.0938C60.1053 22.0938 61.4841 23.7123 61.4841 25.5706V25.5906C61.4841 26.4498 61.1843 27.2491 60.6648 27.8685L61.564 28.6078L61.0445 29.1873L60.1653 28.368ZM59.6058 27.8685L58.3469 26.7895L58.8664 26.21L60.1053 27.349C60.465 26.8694 60.7048 26.27 60.7048 25.5906V25.5706C60.7048 24.032 59.5858 22.7731 58.0272 22.7731C56.4686 22.7731 55.3696 24.012 55.3696 25.5506V25.5706C55.3696 27.1092 56.4886 28.368 58.0472 28.368C58.6466 28.388 59.1861 28.1882 59.6058 27.8685Z" fill="#0A436A"/>
<path d="M62.9028 27.0891V23.9919H63.6422V26.9093C63.6422 27.8285 64.1417 28.4279 65.0209 28.4279C65.8801 28.4279 66.5195 27.8085 66.5195 26.8693V24.0119H67.2589V29.0074H66.5195V28.1282C66.1799 28.6677 65.6603 29.1073 64.8011 29.1073C63.6022 29.0873 62.9028 28.2681 62.9028 27.0891Z" fill="#0A436A"/>
<path d="M71.1354 28.4479C71.8148 28.4479 72.3143 28.1682 72.714 27.7485L73.1735 28.1682C72.674 28.7277 72.0545 29.1073 71.1154 29.1073C69.7367 29.1073 68.6177 28.0483 68.6177 26.4897C68.6177 25.031 69.6367 23.8721 71.0155 23.8721C72.4941 23.8721 73.3534 25.051 73.3534 26.5297C73.3534 26.5896 73.3534 26.6695 73.3534 26.7894H69.397C69.4769 27.8285 70.2562 28.4479 71.1354 28.4479ZM72.5941 26.19C72.5141 25.2708 71.9946 24.5115 70.9955 24.5115C70.1363 24.5115 69.4769 25.2308 69.377 26.19H72.5941Z" fill="#0A436A"/>
<path d="M76.87 28.4479C77.5494 28.4479 78.0489 28.1682 78.4486 27.7485L78.9081 28.1682C78.4086 28.7277 77.7892 29.1073 76.85 29.1073C75.4713 29.1073 74.3523 28.0483 74.3523 26.4897C74.3523 25.031 75.3714 23.8721 76.7501 23.8721C78.2288 23.8721 79.088 25.051 79.088 26.5297C79.088 26.5896 79.088 26.6695 79.088 26.7894H75.1316C75.2115 27.8285 75.9908 28.4479 76.87 28.4479ZM78.3287 26.19C78.2487 25.2708 77.7292 24.5115 76.7301 24.5115C75.8709 24.5115 75.2115 25.2308 75.1116 26.19H78.3287Z" fill="#0A436A"/>
<path d="M80.387 23.972H81.1263V24.8512C81.446 24.3117 81.9855 23.8721 82.8447 23.8721C84.0436 23.8721 84.763 24.6913 84.763 25.8703V28.9674H84.0237V26.0501C84.0237 25.1309 83.5241 24.5315 82.6449 24.5315C81.7857 24.5315 81.1463 25.1509 81.1463 26.0901V28.9475H80.4069L80.387 23.972Z" fill="#0A436A"/>
<path d="M85.9219 28.348L86.3015 27.8085C86.841 28.2081 87.4405 28.4479 88.04 28.4479C88.6394 28.4479 89.079 28.1482 89.079 27.6486V27.6287C89.079 27.1291 88.4796 26.9293 87.8401 26.7495C87.0608 26.5297 86.1816 26.2499 86.1816 25.3307V25.3108C86.1816 24.4515 86.901 23.8721 87.8801 23.8721C88.4795 23.8721 89.1589 24.0919 89.6785 24.4316L89.3388 24.9911C88.8792 24.6913 88.3397 24.5115 87.8601 24.5115C87.2607 24.5115 86.901 24.8312 86.901 25.2308V25.2508C86.901 25.7304 87.5204 25.9102 88.1798 26.11C88.9591 26.3498 89.7784 26.6495 89.7784 27.5487V27.5687C89.7784 28.5278 88.9991 29.0673 88 29.0673C87.2806 29.0673 86.4814 28.7876 85.9219 28.348Z" fill="#0A436A"/>
<path d="M91.217 21.9138H91.9564V28.9674H91.217V21.9138Z" fill="#0A436A"/>
<path d="M93.3152 27.5288C93.3152 26.4298 94.1944 25.8703 95.4532 25.8703C96.0927 25.8703 96.5323 25.9502 96.9719 26.0901V25.9302C96.9719 25.051 96.4324 24.5715 95.4932 24.5715C94.8937 24.5715 94.4342 24.7113 93.9746 24.9311L93.7548 24.3117C94.3143 24.0519 94.8338 23.8921 95.5731 23.8921C96.2725 23.8921 96.832 24.0919 97.1917 24.4516C97.5314 24.7913 97.7112 25.2908 97.7112 25.9302V28.9875H96.9719V28.2481C96.6322 28.6877 96.0527 29.1073 95.1735 29.1073C94.2543 29.0874 93.3152 28.5479 93.3152 27.5288ZM96.9918 27.1491V26.6895C96.6322 26.5896 96.1326 26.4697 95.5332 26.4697C94.594 26.4697 94.0745 26.8694 94.0745 27.4688V27.4888C94.0745 28.1083 94.654 28.4879 95.3334 28.4879C96.2525 28.4879 96.9918 27.9284 96.9918 27.1491Z" fill="#0A436A"/>
<path d="M99.2898 23.972H100.029V24.8512C100.369 24.3117 100.888 23.8721 101.748 23.8721C102.946 23.8721 103.666 24.6913 103.666 25.8703V28.9674H102.926V26.0501C102.926 25.1309 102.427 24.5315 101.548 24.5315C100.689 24.5315 100.049 25.1509 100.049 26.0901V28.9475H99.3098L99.2898 23.972Z" fill="#0A436A"/>
<path d="M104.965 26.4897C104.965 24.8312 106.164 23.872 107.362 23.872C108.302 23.872 108.901 24.3716 109.281 24.9311V21.9138H110.02V28.9674H109.281V27.9683C108.881 28.5678 108.282 29.0873 107.362 29.0873C106.144 29.0873 104.965 28.1282 104.965 26.4897ZM109.301 26.4897C109.301 25.3307 108.421 24.5514 107.502 24.5514C106.543 24.5514 105.744 25.2708 105.744 26.4697V26.4897C105.744 27.6686 106.563 28.4279 107.502 28.4279C108.401 28.4079 109.301 27.6286 109.301 26.4897Z" fill="#0A436A"/>
<path d="M47.4569 0.772949H46.0781V29.1871H47.4569V0.772949Z" fill="#D92F27"/>
<path d="M39.8238 19.416H0V19.9755H39.8238V19.416Z" fill="#0A436A"/>
<path d="M3.41689 10.5641V17.0182H0V0.912842H7.11353C10.6303 0.912842 12.5286 2.8311 12.5286 5.32883C12.5286 7.48686 11.3497 8.64581 10.1907 9.14536C10.99 9.44508 12.2089 10.2643 12.2089 13.1617V13.961C12.2089 15.04 12.2089 16.2789 12.4487 17.0182H9.11172C8.83197 16.3188 8.79201 15.0999 8.79201 13.4015V13.1617C8.79201 11.4033 8.35241 10.5641 5.73479 10.5641H3.41689ZM3.41689 7.76661H6.35422C8.2525 7.76661 9.01181 7.04726 9.01181 5.70848C9.01181 4.38968 8.15259 3.65035 6.43415 3.65035H3.43688V7.76661H3.41689Z" fill="#0A436A"/>
<path d="M17.1245 12.2825C17.5042 13.9011 18.6431 14.6204 20.5214 14.6204C22.3997 14.6204 23.199 13.8811 23.199 12.7022C23.199 11.3634 22.4197 10.8039 19.6622 10.1844C15.2462 9.14539 14.1672 7.54685 14.1672 5.36883C14.1672 2.57137 16.2853 0.673096 20.1018 0.673096C24.3979 0.673096 26.1163 2.97101 26.3361 5.32886H22.8193C22.6395 4.32977 22.1 3.25075 20.0019 3.25075C18.5632 3.25075 17.724 3.83023 17.724 4.98917C17.724 6.10815 18.4033 6.56774 21.0409 7.16719C25.7367 8.26619 26.7757 10.0046 26.7757 12.2825C26.7757 15.1999 24.5577 17.238 20.2816 17.238C16.1654 17.238 13.9874 15.2199 13.6277 12.2825H17.1245Z" fill="#0A436A"/>
<path d="M32.2107 14.1608V0.912842H28.7139V17.0182H39.8837V14.1608H32.2107Z" fill="#0A436A"/>
<path d="M1.89824 27.2889L1.21886 29.1872H0.239746L2.5976 22.5532H3.81649L6.27426 29.2072H5.2352L4.53584 27.2889H1.89824ZM4.25609 26.4697C3.65664 24.7912 3.31695 23.872 3.17708 23.3325H3.15709C2.99724 23.912 2.61758 25.031 2.13802 26.4697H4.25609Z" fill="#D92F27"/>
<path d="M6.87374 25.6504C6.87374 25.011 6.87374 24.6113 6.85376 24.3316H7.77292C7.79291 24.4715 7.79291 24.8711 7.79291 25.3107C8.03269 24.6713 8.61216 24.2517 9.41143 24.2317V25.1509C8.41234 25.1708 7.79291 25.6504 7.79291 26.8893V29.2072H6.85376L6.87374 25.6504Z" fill="#D92F27"/>
<path d="M9.97095 24.3316H10.7902V22.9128H11.7293V24.3316H12.7884V25.0909H11.7293V27.8484C11.7293 28.3079 11.8492 28.5277 12.2689 28.5277C12.3688 28.5277 12.5486 28.5277 12.6685 28.4878V29.1871C12.4487 29.2671 12.149 29.2671 11.9092 29.2671C11.1099 29.2671 10.7902 28.8474 10.7902 28.0282V25.0709H9.97095V24.3316Z" fill="#D92F27"/>
<path d="M17.2042 22.5532V26.5496C17.2042 28.0682 18.0235 28.4878 18.8427 28.4878C19.8018 28.4878 20.4812 28.0282 20.4812 26.5496V22.5532H21.4803V26.4896C21.4803 28.6677 20.2614 29.2871 18.8427 29.2871C17.424 29.2871 16.2251 28.6277 16.2251 26.5496V22.5532H17.2042Z" fill="#D92F27"/>
<path d="M22.8193 25.5505C22.8193 25.1308 22.8193 24.6912 22.7993 24.3316H23.7185C23.7385 24.4714 23.7584 24.951 23.7584 25.0909C23.9383 24.6912 24.3379 24.2117 25.2771 24.2117C26.1962 24.2117 26.8956 24.7911 26.8956 26.07V29.2071H25.9564V26.1899C25.9564 25.4905 25.6967 25.0109 24.9773 25.0109C24.1181 25.0109 23.7584 25.6304 23.7584 26.5895V29.2071H22.8193V25.5505Z" fill="#D92F27"/>
<path d="M29.2133 22.5332H28.2742V23.6122H29.2133V22.5332Z" fill="#D92F27"/>
<path d="M29.2133 24.3315H28.2742V29.2071H29.2133V24.3315Z" fill="#D92F27"/>
<path d="M34.8683 26.7494C34.8683 28.1681 34.049 29.307 32.5504 29.307C31.1317 29.307 30.2725 28.228 30.2725 26.7693C30.2725 25.3107 31.1117 24.2117 32.5904 24.2117C33.9891 24.2117 34.8683 25.2307 34.8683 26.7494ZM31.2516 26.7693C31.2516 27.8084 31.7511 28.5477 32.5904 28.5477C33.4296 28.5477 33.9092 27.8484 33.9092 26.7693C33.9092 25.6903 33.4296 24.991 32.5704 24.991C31.7112 24.991 31.2516 25.6703 31.2516 26.7693Z" fill="#D92F27"/>
<path d="M35.9473 25.5505C35.9473 25.1308 35.9473 24.6912 35.9473 24.3316H36.8664C36.8864 24.4714 36.9064 24.951 36.9064 25.0909C37.0862 24.6912 37.4859 24.2117 38.425 24.2117C39.3442 24.2117 40.0435 24.7911 40.0435 26.07V29.2071H39.1044V26.1899C39.1044 25.4905 38.8446 25.0109 38.1253 25.0109C37.2661 25.0109 36.9064 25.6304 36.9064 26.5895V29.2071H35.9672L35.9473 25.5505Z" fill="#D92F27"/>
</g>
<defs>
<clipPath id="clip0_3822_25770">
<rect width="110" height="28.6539" fill="white" transform="translate(0 0.673096)"/>
</clipPath>
</defs>
</svg>
