<svg width="24" height="18" viewBox="0 0 24 18" fill="none" xmlns="http://www.w3.org/2000/svg">
<path d="M6.61238 11.3823C6.529 11.2793 6.51294 11.1373 6.57121 11.0183L11.9614 0.00691048L11.9619 0.00480007V0.00318987L11.9651 0L11.9683 0.00318987V0.00480101L11.9688 0.00690991L17.3528 11.0185C17.4109 11.1374 17.3949 11.2793 17.3117 11.3822L11.9703 17.989C11.969 17.9905 11.9671 17.9914 11.9651 17.9914C11.9631 17.9914 11.9612 17.9905 11.9599 17.989L6.61238 11.3823Z" fill="#414042"/>
<path d="M0.340603 17.917C0.152493 17.917 0 17.7645 0 17.5764V6.13401C0 5.81056 0.408567 5.66924 0.608416 5.92357L9.59969 17.3659C9.77529 17.5894 9.61609 17.917 9.33187 17.917H0.340603Z" fill="#414042"/>
<path d="M23.6594 17.917C23.8475 17.917 24 17.7645 24 17.5764V6.13401C24 5.81056 23.5914 5.66924 23.3916 5.92357L14.4003 17.3659C14.2247 17.5894 14.3839 17.917 14.6681 17.917H23.6594Z" fill="#414042"/>
</svg>
