<svg width="13" height="11" viewBox="0 0 13 11" fill="none" xmlns="http://www.w3.org/2000/svg">
<path d="M3.5817 6.79046C3.53654 6.73467 3.52784 6.65774 3.5594 6.59327L6.4791 0.628774L6.47936 0.627631V0.626758L6.48109 0.625031L6.48282 0.626758V0.627631L6.48308 0.628773L9.39943 6.59337C9.43093 6.65779 9.42224 6.73463 9.37716 6.7904L6.4839 10.3691C6.48322 10.3699 6.48218 10.3704 6.48109 10.3704C6.48 10.3704 6.47896 10.3699 6.47828 10.3691L3.5817 6.79046Z" fill="white"/>
<path d="M0.184493 10.3301C0.0826004 10.3301 0 10.2475 0 10.1456V3.94762C0 3.77242 0.221307 3.69587 0.329559 3.83363L5.19983 10.0316C5.29495 10.1526 5.20871 10.3301 5.05476 10.3301H0.184493Z" fill="white"/>
<path d="M12.8155 10.3301C12.9174 10.3301 13 10.2475 13 10.1456V3.94762C13 3.77242 12.7787 3.69587 12.6704 3.83363L7.80017 10.0316C7.70505 10.1526 7.79129 10.3301 7.94524 10.3301H12.8155Z" fill="white"/>
</svg>
